<?xml version="1.0" encoding="utf-8"?>
<!-- Generator: Adobe Illustrator 27.2.0, SVG Export Plug-In . SVG Version: 6.00 Build 0)  -->
<svg version="1.1" id="Layer_1" xmlns="http://www.w3.org/2000/svg" xmlns:xlink="http://www.w3.org/1999/xlink" x="0px" y="0px"
	 viewBox="0 0 512 512" style="enable-background:new 0 0 512 512;" xml:space="preserve">
<style type="text/css">
	.st0{fill-rule:evenodd;clip-rule:evenodd;fill:#4E3188;}
	.st1{fill-rule:evenodd;clip-rule:evenodd;fill:url(#SVGID_1_);}
</style>
<g>
	<path class="st0" d="M512,50c0-27.6-22.4-50-50-50H50C22.4,0,0,22.4,0,50v412c0,27.6,22.4,50,50,50h412c27.6,0,50-22.4,50-50V50z"
		/>
	
		<radialGradient id="SVGID_1_" cx="5.7487" cy="6.2885" r="0.4741" gradientTransform="matrix(1095.0302 0 0 1095.0276 -5923.4932 -6930.6582)" gradientUnits="userSpaceOnUse">
		<stop  offset="0" style="stop-color:#F9A6FF"/>
		<stop  offset="1" style="stop-color:#EA73FF"/>
	</radialGradient>
	<path class="st1" d="M474.5,325.04V454.5c0,10.9-8.74,19.78-19.6,20l-132.21,0l-86.32-149.45H474.5z M303.02,474.5H69.13
		l117.01-202.36L303.02,474.5z M50.35,473.18c-7.07-2.71-12.22-9.33-12.79-17.2l-0.06-89.23l95.09-164.63h74.32L50.35,473.18z
		 M274.87,201.82c6.47,0.03,12.67,3.83,16.02,9.47c0.04,0.06,0.1,0.17,0.1,0.17l19.65,34.03c0,0,0.11,0.19,0.17,0.28
		c3.21,5.62,3.33,12.69,0.12,18.41c-6.59,11.52-13.28,22.99-19.92,34.48c-3.26,5.59-9.43,9.24-15.99,9.32
		c-12.52,0.05-37.61,0.02-37.65,0.02c-6.47-0.03-12.77-3.48-16.12-9.12c-0.08-0.12-0.21-0.37-0.21-0.37s-19.66-34.03-19.7-34.11
		c-3.21-5.62-3.21-12.87,0-18.59c0.05-0.08,0.15-0.25,0.15-0.25s13.16-22.82,19.74-34.23c3.26-5.59,9.45-9.43,16-9.52
		c0.11,0,0.33-0.01,0.33-0.01l37.09,0.01H274.87z M460.94,38.56L305.32,308H474.5V57.5C474.5,48.72,468.82,41.25,460.94,38.56z
		 M227.67,37.5h214.22L326.03,238.08L218.93,52.64L227.67,37.5z M275.76,185.1H142.42l66.67-115.43L275.76,185.1z"/>
</g>
</svg>
